<svg width="583" height="156" viewBox="0 0 583 156" fill="none" xmlns="http://www.w3.org/2000/svg">
<path d="M211.225 132.25V150H209.5V141.7H198.975V150H197.225V132.25H198.975V140.15H209.5V132.25H211.225ZM215.682 150V132.25H217.432V150H215.682ZM229.008 150.125C227.808 150.125 226.7 149.875 225.683 149.375C224.683 148.858 223.808 148.167 223.058 147.3C222.308 146.433 221.725 145.467 221.308 144.4C220.908 143.317 220.708 142.217 220.708 141.1C220.708 139.917 220.908 138.792 221.308 137.725C221.725 136.642 222.3 135.683 223.033 134.85C223.767 134 224.633 133.333 225.633 132.85C226.633 132.367 227.725 132.125 228.908 132.125C230.658 132.125 232.083 132.483 233.183 133.2C234.283 133.917 235.117 134.85 235.683 136L234.333 136.9C233.767 135.8 233.008 134.992 232.058 134.475C231.108 133.958 230.05 133.7 228.883 133.7C227.9 133.7 227.008 133.908 226.208 134.325C225.425 134.742 224.75 135.3 224.183 136C223.633 136.7 223.208 137.492 222.908 138.375C222.608 139.258 222.458 140.175 222.458 141.125C222.458 142.125 222.625 143.075 222.958 143.975C223.292 144.858 223.758 145.65 224.358 146.35C224.975 147.033 225.683 147.575 226.483 147.975C227.3 148.358 228.183 148.55 229.133 148.55C230.15 148.55 231.117 148.308 232.033 147.825C232.967 147.342 233.858 146.592 234.708 145.575V142.625H230.758V141.275H236.183V150H234.708V147.4C233.075 149.217 231.175 150.125 229.008 150.125ZM239.779 150V132.25H241.529V150H239.779ZM257.905 148.45V150H245.98V132.25H257.68V133.8H247.73V140.2H256.405V141.675H247.73V148.45H257.905ZM262.964 135.475V150H261.214V132.25H262.664L274.314 147.05V132.275H276.064V150H274.439L262.964 135.475ZM280.526 150V132.25H282.276V150H280.526ZM285.277 148.625L297.352 133.8H285.477V132.25H299.377V133.625L287.452 148.45H299.352V150H285.277V148.625ZM307.95 132.25H309.425L316.8 150H314.95L312.65 144.45H304.675L302.4 150H300.525L307.95 132.25ZM312.25 143.075L308.675 134.3L305.05 143.075H312.25ZM317.51 141C317.51 139.933 317.693 138.875 318.06 137.825C318.443 136.775 318.993 135.825 319.71 134.975C320.427 134.108 321.31 133.425 322.36 132.925C323.41 132.408 324.602 132.15 325.935 132.15C327.502 132.15 328.852 132.517 329.985 133.25C331.118 133.967 331.952 134.892 332.485 136.025L331.11 136.875C330.727 136.092 330.243 135.475 329.66 135.025C329.077 134.558 328.452 134.225 327.785 134.025C327.135 133.825 326.485 133.725 325.835 133.725C324.768 133.725 323.827 133.942 323.01 134.375C322.193 134.792 321.502 135.358 320.935 136.075C320.385 136.792 319.968 137.583 319.685 138.45C319.402 139.317 319.26 140.2 319.26 141.1C319.26 142.083 319.427 143.025 319.76 143.925C320.093 144.808 320.56 145.6 321.16 146.3C321.76 147 322.46 147.558 323.26 147.975C324.077 148.375 324.96 148.575 325.91 148.575C326.577 148.575 327.26 148.458 327.96 148.225C328.66 147.992 329.31 147.633 329.91 147.15C330.51 146.667 331.002 146.042 331.385 145.275L332.835 146.025C332.452 146.908 331.877 147.658 331.11 148.275C330.36 148.892 329.51 149.358 328.56 149.675C327.627 149.992 326.71 150.15 325.81 150.15C324.593 150.15 323.477 149.892 322.46 149.375C321.443 148.842 320.56 148.142 319.81 147.275C319.077 146.392 318.51 145.408 318.11 144.325C317.71 143.225 317.51 142.117 317.51 141ZM325.535 154.5C325.102 154.5 324.635 154.442 324.135 154.325C323.635 154.208 323.152 154.033 322.685 153.8L323.185 152.825C323.535 152.992 323.868 153.125 324.185 153.225C324.502 153.325 324.86 153.375 325.26 153.375C326.41 153.375 326.985 152.95 326.985 152.1C326.985 151.667 326.835 151.283 326.535 150.95C326.235 150.633 325.802 150.317 325.235 150L325.96 149.525C326.61 149.925 327.135 150.342 327.535 150.775C327.935 151.208 328.135 151.742 328.135 152.375C328.135 153.058 327.902 153.583 327.435 153.95C326.968 154.317 326.335 154.5 325.535 154.5ZM341.079 132.25H342.554L349.929 150H348.079L345.779 144.45H337.804L335.529 150H333.654L341.079 132.25ZM345.379 143.075L341.804 134.3L338.179 143.075H345.379ZM343.329 129.375C342.829 129.375 342.404 129.292 342.054 129.125C341.721 128.958 341.404 128.792 341.104 128.625C340.804 128.458 340.479 128.375 340.129 128.375C339.763 128.375 339.488 128.467 339.304 128.65C339.138 128.833 339.021 129.025 338.954 129.225C338.904 129.408 338.879 129.525 338.879 129.575H337.829C337.829 129.475 337.854 129.308 337.904 129.075C337.971 128.825 338.088 128.558 338.254 128.275C338.421 127.992 338.654 127.75 338.954 127.55C339.254 127.35 339.638 127.25 340.104 127.25C340.571 127.25 340.963 127.342 341.279 127.525C341.596 127.692 341.904 127.867 342.204 128.05C342.521 128.217 342.888 128.3 343.304 128.3C343.738 128.3 344.054 128.208 344.254 128.025C344.454 127.825 344.579 127.625 344.629 127.425C344.696 127.225 344.729 127.108 344.729 127.075H345.779C345.779 127.158 345.746 127.325 345.679 127.575C345.613 127.808 345.488 128.067 345.304 128.35C345.138 128.633 344.888 128.875 344.554 129.075C344.238 129.275 343.829 129.375 343.329 129.375ZM358.965 150.125C357.715 150.125 356.582 149.875 355.565 149.375C354.548 148.858 353.673 148.175 352.94 147.325C352.207 146.475 351.64 145.517 351.24 144.45C350.84 143.367 350.64 142.258 350.64 141.125C350.64 139.942 350.848 138.817 351.265 137.75C351.682 136.667 352.265 135.708 353.015 134.875C353.782 134.025 354.673 133.358 355.69 132.875C356.707 132.375 357.807 132.125 358.99 132.125C360.223 132.125 361.348 132.383 362.365 132.9C363.382 133.417 364.257 134.108 364.99 134.975C365.74 135.842 366.307 136.808 366.69 137.875C367.09 138.942 367.29 140.033 367.29 141.15C367.29 142.333 367.082 143.467 366.665 144.55C366.248 145.617 365.665 146.575 364.915 147.425C364.165 148.258 363.282 148.917 362.265 149.4C361.248 149.883 360.148 150.125 358.965 150.125ZM352.39 141.125C352.39 142.092 352.548 143.017 352.865 143.9C353.182 144.783 353.632 145.575 354.215 146.275C354.798 146.975 355.49 147.533 356.29 147.95C357.107 148.35 357.998 148.55 358.965 148.55C359.982 148.55 360.89 148.342 361.69 147.925C362.507 147.492 363.198 146.917 363.765 146.2C364.348 145.483 364.79 144.692 365.09 143.825C365.39 142.942 365.54 142.042 365.54 141.125C365.54 140.158 365.382 139.233 365.065 138.35C364.748 137.467 364.29 136.675 363.69 135.975C363.107 135.275 362.415 134.725 361.615 134.325C360.815 133.925 359.932 133.725 358.965 133.725C357.965 133.725 357.057 133.933 356.24 134.35C355.44 134.767 354.748 135.333 354.165 136.05C353.598 136.75 353.157 137.542 352.84 138.425C352.54 139.308 352.39 140.208 352.39 141.125ZM376.961 150V132.25H382.986C384.87 132.25 386.436 132.65 387.686 133.45C388.953 134.233 389.903 135.3 390.536 136.65C391.17 137.983 391.486 139.467 391.486 141.1C391.486 142.9 391.136 144.467 390.436 145.8C389.736 147.133 388.753 148.167 387.486 148.9C386.22 149.633 384.72 150 382.986 150H376.961ZM389.736 141.1C389.736 139.683 389.47 138.425 388.936 137.325C388.42 136.225 387.653 135.367 386.636 134.75C385.636 134.117 384.42 133.8 382.986 133.8H378.711V148.45H382.986C384.453 148.45 385.686 148.125 386.686 147.475C387.686 146.825 388.445 145.95 388.961 144.85C389.478 143.75 389.736 142.5 389.736 141.1ZM406.757 148.45V150H394.832V132.25H406.532V133.8H396.582V140.2H405.257V141.675H396.582V148.45H406.757ZM428.364 148.45V150H416.439V132.25H428.139V133.8H418.189V140.2H426.864V141.675H418.189V148.45H428.364ZM441.951 135.575C441.451 135.025 440.784 134.575 439.951 134.225C439.117 133.858 438.167 133.675 437.101 133.675C435.534 133.675 434.392 133.975 433.676 134.575C432.959 135.158 432.601 135.958 432.601 136.975C432.601 137.675 432.776 138.225 433.126 138.625C433.476 139.025 434.009 139.358 434.726 139.625C435.459 139.875 436.392 140.125 437.526 140.375C438.792 140.642 439.884 140.958 440.801 141.325C441.717 141.692 442.426 142.192 442.926 142.825C443.426 143.442 443.676 144.283 443.676 145.35C443.676 146.433 443.401 147.333 442.851 148.05C442.301 148.767 441.542 149.3 440.576 149.65C439.609 149.983 438.509 150.15 437.276 150.15C434.509 150.15 432.134 149.292 430.151 147.575L431.026 146.15C431.659 146.817 432.526 147.392 433.626 147.875C434.742 148.358 435.976 148.6 437.326 148.6C438.726 148.6 439.826 148.342 440.626 147.825C441.426 147.308 441.826 146.542 441.826 145.525C441.826 144.792 441.626 144.208 441.226 143.775C440.826 143.325 440.226 142.958 439.426 142.675C438.626 142.392 437.642 142.117 436.476 141.85C435.242 141.567 434.201 141.25 433.351 140.9C432.517 140.55 431.884 140.092 431.451 139.525C431.017 138.958 430.801 138.192 430.801 137.225C430.801 136.125 431.067 135.2 431.601 134.45C432.151 133.683 432.901 133.108 433.851 132.725C434.801 132.325 435.892 132.125 437.126 132.125C438.292 132.125 439.342 132.308 440.276 132.675C441.209 133.025 442.051 133.525 442.801 134.175L441.951 135.575ZM459.337 133.8H453.012V150H451.262V133.8H444.937V132.25H459.337V133.8ZM468.511 150.125C467.261 150.125 466.127 149.875 465.111 149.375C464.094 148.858 463.219 148.175 462.486 147.325C461.752 146.475 461.186 145.517 460.786 144.45C460.386 143.367 460.186 142.258 460.186 141.125C460.186 139.942 460.394 138.817 460.811 137.75C461.227 136.667 461.811 135.708 462.561 134.875C463.327 134.025 464.219 133.358 465.236 132.875C466.252 132.375 467.352 132.125 468.536 132.125C469.769 132.125 470.894 132.383 471.911 132.9C472.927 133.417 473.802 134.108 474.536 134.975C475.286 135.842 475.852 136.808 476.236 137.875C476.636 138.942 476.836 140.033 476.836 141.15C476.836 142.333 476.627 143.467 476.211 144.55C475.794 145.617 475.211 146.575 474.461 147.425C473.711 148.258 472.827 148.917 471.811 149.4C470.794 149.883 469.694 150.125 468.511 150.125ZM461.936 141.125C461.936 142.092 462.094 143.017 462.411 143.9C462.727 144.783 463.177 145.575 463.761 146.275C464.344 146.975 465.036 147.533 465.836 147.95C466.652 148.35 467.544 148.55 468.511 148.55C469.527 148.55 470.436 148.342 471.236 147.925C472.052 147.492 472.744 146.917 473.311 146.2C473.894 145.483 474.336 144.692 474.636 143.825C474.936 142.942 475.086 142.042 475.086 141.125C475.086 140.158 474.927 139.233 474.611 138.35C474.294 137.467 473.836 136.675 473.236 135.975C472.652 135.275 471.961 134.725 471.161 134.325C470.361 133.925 469.477 133.725 468.511 133.725C467.511 133.725 466.602 133.933 465.786 134.35C464.986 134.767 464.294 135.333 463.711 136.05C463.144 136.75 462.702 137.542 462.386 138.425C462.086 139.308 461.936 140.208 461.936 141.125ZM480.135 150V132.25H491.785V133.8H481.885V140.325H490.235V141.775H481.885V150H480.135ZM498.819 132.25H500.294L507.669 150H505.819L503.519 144.45H495.544L493.269 150H491.394L498.819 132.25ZM503.119 143.075L499.544 134.3L495.919 143.075H503.119ZM510.213 150V132.25H516.238C518.122 132.25 519.688 132.65 520.938 133.45C522.205 134.233 523.155 135.3 523.788 136.65C524.422 137.983 524.738 139.467 524.738 141.1C524.738 142.9 524.388 144.467 523.688 145.8C522.988 147.133 522.005 148.167 520.738 148.9C519.472 149.633 517.972 150 516.238 150H510.213ZM522.988 141.1C522.988 139.683 522.722 138.425 522.188 137.325C521.672 136.225 520.905 135.367 519.888 134.75C518.888 134.117 517.672 133.8 516.238 133.8H511.963V148.45H516.238C517.705 148.45 518.938 148.125 519.938 147.475C520.938 146.825 521.697 145.95 522.213 144.85C522.73 143.75 522.988 142.5 522.988 141.1ZM535.234 150.125C533.984 150.125 532.851 149.875 531.834 149.375C530.818 148.858 529.943 148.175 529.209 147.325C528.476 146.475 527.909 145.517 527.509 144.45C527.109 143.367 526.909 142.258 526.909 141.125C526.909 139.942 527.118 138.817 527.534 137.75C527.951 136.667 528.534 135.708 529.284 134.875C530.051 134.025 530.943 133.358 531.959 132.875C532.976 132.375 534.076 132.125 535.259 132.125C536.493 132.125 537.618 132.383 538.634 132.9C539.651 133.417 540.526 134.108 541.259 134.975C542.009 135.842 542.576 136.808 542.959 137.875C543.359 138.942 543.559 140.033 543.559 141.15C543.559 142.333 543.351 143.467 542.934 144.55C542.518 145.617 541.934 146.575 541.184 147.425C540.434 148.258 539.551 148.917 538.534 149.4C537.518 149.883 536.418 150.125 535.234 150.125ZM528.659 141.125C528.659 142.092 528.818 143.017 529.134 143.9C529.451 144.783 529.901 145.575 530.484 146.275C531.068 146.975 531.759 147.533 532.559 147.95C533.376 148.35 534.268 148.55 535.234 148.55C536.251 148.55 537.159 148.342 537.959 147.925C538.776 147.492 539.468 146.917 540.034 146.2C540.618 145.483 541.059 144.692 541.359 143.825C541.659 142.942 541.809 142.042 541.809 141.125C541.809 140.158 541.651 139.233 541.334 138.35C541.018 137.467 540.559 136.675 539.959 135.975C539.376 135.275 538.684 134.725 537.884 134.325C537.084 133.925 536.201 133.725 535.234 133.725C534.234 133.725 533.326 133.933 532.509 134.35C531.709 134.767 531.018 135.333 530.434 136.05C529.868 136.75 529.426 137.542 529.109 138.425C528.809 139.308 528.659 140.208 528.659 141.125ZM557.234 135.575C556.734 135.025 556.067 134.575 555.234 134.225C554.4 133.858 553.45 133.675 552.384 133.675C550.817 133.675 549.675 133.975 548.959 134.575C548.242 135.158 547.884 135.958 547.884 136.975C547.884 137.675 548.059 138.225 548.409 138.625C548.759 139.025 549.292 139.358 550.009 139.625C550.742 139.875 551.675 140.125 552.809 140.375C554.075 140.642 555.167 140.958 556.084 141.325C557 141.692 557.709 142.192 558.209 142.825C558.709 143.442 558.959 144.283 558.959 145.35C558.959 146.433 558.684 147.333 558.134 148.05C557.584 148.767 556.825 149.3 555.859 149.65C554.892 149.983 553.792 150.15 552.559 150.15C549.792 150.15 547.417 149.292 545.434 147.575L546.309 146.15C546.942 146.817 547.809 147.392 548.909 147.875C550.025 148.358 551.259 148.6 552.609 148.6C554.009 148.6 555.109 148.342 555.909 147.825C556.709 147.308 557.109 146.542 557.109 145.525C557.109 144.792 556.909 144.208 556.509 143.775C556.109 143.325 555.509 142.958 554.709 142.675C553.909 142.392 552.925 142.117 551.759 141.85C550.525 141.567 549.484 141.25 548.634 140.9C547.8 140.55 547.167 140.092 546.734 139.525C546.3 138.958 546.084 138.192 546.084 137.225C546.084 136.125 546.35 135.2 546.884 134.45C547.434 133.683 548.184 133.108 549.134 132.725C550.084 132.325 551.175 132.125 552.409 132.125C553.575 132.125 554.625 132.308 555.559 132.675C556.492 133.025 557.334 133.525 558.084 134.175L557.234 135.575Z" fill="white"/>
<path d="M173.448 75.592C174.456 76.312 175.776 76.936 177.408 77.464C179.088 77.992 181.008 78.256 183.168 78.256C186.48 78.256 188.976 77.512 190.656 76.024C192.336 74.488 193.44 72.208 193.968 69.184C194.544 66.16 194.832 62.392 194.832 57.88V30.88H199.872V56.872C199.872 60.712 199.68 64.216 199.296 67.384C198.912 70.552 198.168 73.288 197.064 75.592C195.96 77.896 194.304 79.672 192.096 80.92C189.888 82.168 186.96 82.792 183.312 82.792C180.96 82.792 178.872 82.528 177.048 82C175.224 81.472 173.544 80.68 172.008 79.624L173.448 75.592ZM226.787 30.88H231.035L252.275 82H246.947L240.323 66.016H217.355L210.803 82H205.403L226.787 30.88ZM239.171 62.056L228.875 36.784L218.435 62.056H239.171ZM290.969 35.344H272.753V82H267.713V35.344H249.497V30.88H290.969V35.344ZM317.391 82.36C313.791 82.36 310.527 81.64 307.599 80.2C304.671 78.712 302.151 76.744 300.039 74.296C297.927 71.848 296.295 69.088 295.143 66.016C293.991 62.896 293.415 59.704 293.415 56.44C293.415 53.032 294.015 49.792 295.215 46.72C296.415 43.6 298.095 40.84 300.255 38.44C302.463 35.992 305.031 34.072 307.959 32.68C310.887 31.24 314.055 30.52 317.463 30.52C321.015 30.52 324.255 31.264 327.183 32.752C330.111 34.24 332.631 36.232 334.743 38.728C336.903 41.224 338.535 44.008 339.639 47.08C340.791 50.152 341.367 53.296 341.367 56.512C341.367 59.92 340.767 63.184 339.567 66.304C338.367 69.376 336.687 72.136 334.527 74.584C332.367 76.984 329.823 78.88 326.895 80.272C323.967 81.664 320.799 82.36 317.391 82.36ZM298.455 56.44C298.455 59.224 298.911 61.888 299.823 64.432C300.735 66.976 302.031 69.256 303.711 71.272C305.391 73.288 307.383 74.896 309.687 76.096C312.039 77.248 314.607 77.824 317.391 77.824C320.319 77.824 322.935 77.224 325.239 76.024C327.591 74.776 329.583 73.12 331.215 71.056C332.895 68.992 334.167 66.712 335.031 64.216C335.895 61.672 336.327 59.08 336.327 56.44C336.327 53.656 335.871 50.992 334.959 48.448C334.047 45.904 332.727 43.624 330.999 41.608C329.319 39.592 327.327 38.008 325.023 36.856C322.719 35.704 320.175 35.128 317.391 35.128C314.511 35.128 311.895 35.728 309.543 36.928C307.239 38.128 305.247 39.76 303.567 41.824C301.935 43.84 300.663 46.12 299.751 48.664C298.887 51.208 298.455 53.8 298.455 56.44ZM346.693 56.08C346.693 52.96 347.245 49.888 348.349 46.864C349.501 43.84 351.157 41.104 353.317 38.656C355.477 36.208 358.117 34.264 361.237 32.824C364.357 31.336 367.909 30.592 371.893 30.592C376.549 30.592 380.605 31.624 384.061 33.688C387.517 35.752 390.085 38.44 391.765 41.752L384.133 47.008C383.269 45.088 382.141 43.576 380.749 42.472C379.357 41.368 377.845 40.576 376.213 40.096C374.629 39.616 373.093 39.376 371.605 39.376C369.109 39.376 366.925 39.88 365.053 40.888C363.229 41.896 361.693 43.216 360.445 44.848C359.197 46.48 358.261 48.304 357.637 50.32C357.061 52.336 356.773 54.352 356.773 56.368C356.773 59.392 357.397 62.224 358.645 64.864C359.893 67.456 361.645 69.568 363.901 71.2C366.157 72.832 368.773 73.648 371.749 73.648C373.285 73.648 374.869 73.384 376.501 72.856C378.181 72.328 379.717 71.488 381.109 70.336C382.501 69.184 383.581 67.696 384.349 65.872L392.485 70.552C391.429 73.096 389.773 75.256 387.517 77.032C385.261 78.76 382.717 80.104 379.885 81.064C377.053 81.976 374.245 82.432 371.461 82.432C367.813 82.432 364.477 81.688 361.453 80.2C358.477 78.664 355.885 76.648 353.677 74.152C351.469 71.608 349.741 68.776 348.493 65.656C347.293 62.488 346.693 59.296 346.693 56.08ZM399.148 82V30.88H409.084V73.288H435.148V82H399.148ZM476.691 73.288V82H441.195V30.88H476.043V39.592H451.131V51.904H472.659V59.968H451.131V73.288H476.691ZM498.333 30.88H508.413L527.205 82H516.981L512.229 69.256H494.373L489.693 82H479.469L498.333 30.88ZM510.429 62.272L503.373 41.176L496.029 62.272H510.429ZM542.748 49.168V82H532.812V30.88H540.732L567.156 64.576V30.952H577.092V82H568.812L542.748 49.168Z" fill="white"/>
<line x1="172" y1="1.5" x2="582" y2="1.5" stroke="white" stroke-width="3"/>
<line x1="172" y1="108.5" x2="582" y2="108.5" stroke="white" stroke-width="3"/>
<path d="M35.5 49.4167V63.5833H106.5V49.4167C106.5 41.6028 112.868 35.25 120.7 35.25H127.8C127.8 23.5182 118.259 14 106.5 14H35.5C23.7406 14 14.2 23.5182 14.2 35.25H21.3C29.1322 35.25 35.5 41.6028 35.5 49.4167ZM127.8 42.3333H120.7C116.773 42.3333 113.6 45.4988 113.6 49.4167V70.6667H28.4V49.4167C28.4 45.4988 25.2272 42.3333 21.3 42.3333H14.2C6.36781 42.3333 0 48.6863 0 56.5C0 61.724 2.88438 66.2396 7.1 68.6967V95.4583C7.1 97.4062 8.6975 99 10.65 99H24.85C26.8025 99 28.4 97.4062 28.4 95.4583V91.9167H113.6V95.4583C113.6 97.4062 115.197 99 117.15 99H131.35C133.303 99 134.9 97.4062 134.9 95.4583V68.6967C139.116 66.2396 142 61.724 142 56.5C142 48.6863 135.632 42.3333 127.8 42.3333Z" fill="white"/>
</svg>
