<svg width="868" height="248" viewBox="0 0 868 248" fill="none" xmlns="http://www.w3.org/2000/svg">
<path d="M15.6839 108.421C17.6782 109.823 20.369 111.065 23.7563 112.16C27.1456 113.264 30.9855 113.811 35.2718 113.811C40.3578 113.811 44.3961 112.912 47.3866 111.116C50.377 109.32 52.6442 106.654 54.1921 103.112C55.7359 99.5782 56.7589 95.2113 57.2549 90.0261C57.755 84.8491 58.003 78.8599 58.003 72.0833V18.0854H71.4653V72.0812C71.4653 80.1577 71.0892 87.511 70.341 94.1429C69.597 100.773 67.9499 106.425 65.4079 111.114C62.8638 115.804 59.2224 119.439 54.4897 122.033C49.7508 124.624 43.3462 125.924 35.2697 125.924C26.2983 125.924 18.6186 123.725 12.2408 119.338L15.6839 108.421Z" fill="white"/>
<path d="M125.459 18.0854H136.826L180.197 124.275H165.84L153.278 93.1654H108.707L96.2963 124.275H81.9392L125.459 18.0854ZM150.284 82.6997L131.14 33.6392L111.402 82.6997H150.284Z" fill="white"/>
<path d="M260.958 30.0556H224.316V124.275H210.858V30.0556H174.212V18.0854H260.958V30.0556Z" fill="white"/>
<path d="M316.148 125.027C308.671 125.027 301.864 123.508 295.734 120.464C289.604 117.426 284.342 113.388 279.957 108.349C275.567 103.317 272.18 97.5549 269.785 91.078C267.394 84.5928 266.195 77.9629 266.195 71.1863C266.195 64.1101 267.47 57.3252 270.01 50.8483C272.552 44.3631 276.067 38.6301 280.554 33.6433C285.039 28.6626 290.348 24.6967 296.482 21.7537C302.612 18.817 309.268 17.3435 316.448 17.3435C323.925 17.3435 330.706 18.9141 336.79 22.0534C342.87 25.1927 348.103 29.3053 352.491 34.3955C356.88 39.4775 360.268 45.2393 362.663 51.6667C365.054 58.1002 366.253 64.6577 366.253 71.3331C366.253 78.4176 364.982 85.1942 362.438 91.6794C359.896 98.1563 356.405 103.869 351.97 108.804C347.533 113.733 342.25 117.676 336.116 120.613C329.983 123.552 323.326 125.027 316.148 125.027ZM279.806 71.1843C279.806 76.5659 280.678 81.7801 282.424 86.8124C284.167 91.8509 286.634 96.3067 289.825 100.198C293.016 104.084 296.854 107.179 301.341 109.473C305.827 111.767 310.812 112.912 316.297 112.912C321.983 112.912 327.064 111.693 331.553 109.246C336.04 106.807 339.853 103.616 342.992 99.6712C346.136 95.7342 348.527 91.2723 350.172 86.2854C351.819 81.3047 352.639 76.2662 352.639 71.1843C352.639 65.8027 351.767 60.5885 350.025 55.5561C348.277 50.5176 345.786 46.0846 342.548 42.2427C339.305 38.409 335.463 35.3421 331.032 33.0419C326.593 30.7561 321.685 29.6029 316.299 29.6029C310.618 29.6029 305.532 30.8016 301.043 33.1969C296.556 35.5921 292.743 38.7314 289.604 42.6167C286.465 46.5083 284.043 50.9413 282.348 55.9302C280.649 60.9171 279.806 65.999 279.806 71.1843Z" fill="white"/>
<path d="M375.52 70.2853C375.52 63.8083 376.739 57.4244 379.186 51.1438C381.624 44.857 385.189 39.2253 389.877 34.2385C394.562 29.2578 400.247 25.2195 406.92 22.1237C413.61 19.034 421.234 17.4943 429.807 17.4943C440.074 17.4943 448.969 19.6127 456.506 23.8473C464.029 28.0819 469.636 33.6908 473.331 40.672L451.042 56.5254C450.048 53.9338 448.733 51.7865 447.084 50.0919C445.433 48.3972 443.622 47.0539 441.622 46.0536C439.621 45.0595 437.561 44.3589 435.414 43.958C433.266 43.5633 431.208 43.3669 429.205 43.3669C425.014 43.3669 421.406 44.1853 418.368 45.8283C415.315 47.4796 412.833 49.6248 410.891 52.2619C408.948 54.9051 407.501 57.8997 406.553 61.2374C405.604 64.5813 405.135 67.89 405.135 71.1843C405.135 74.8712 405.674 78.4135 406.772 81.8028C407.867 85.1921 409.473 88.1847 411.562 90.7783C413.652 93.3699 416.22 95.4366 419.258 96.9866C422.296 98.5283 425.715 99.3013 429.511 99.3013C431.497 99.3013 433.543 99.0739 435.645 98.6296C437.734 98.177 439.749 97.4309 441.692 96.3873C443.635 95.3353 445.387 93.992 446.935 92.349C448.469 90.6977 449.696 88.6827 450.602 86.2875L474.379 100.498C472.773 104.383 470.363 107.874 467.12 110.97C463.878 114.059 460.183 116.651 456.049 118.74C451.916 120.836 447.477 122.436 442.744 123.531C438.011 124.626 433.397 125.174 428.912 125.174C421.025 125.174 413.825 123.603 407.297 120.464C400.768 117.325 395.13 113.16 390.397 107.977C385.659 102.792 381.996 96.906 379.403 90.3257C376.815 83.7455 375.52 77.0701 375.52 70.2853Z" fill="white"/>
<path d="M484.695 124.275V18.0854H513.862V98.8528H562.015V124.273H484.695V124.275Z" fill="white"/>
<path d="M647.869 98.8549V124.275H572.19V18.0854H646.524V43.5137H601.357V58.4701H639.943V82.1025H601.357V98.8549H647.869Z" fill="white"/>
<path d="M688.998 18.0854H715.616L752.407 124.275H722.794L716.36 103.49H688.099L681.818 124.275H652.052L688.998 18.0854ZM711.731 84.0452L702.303 51.1459L692.437 84.0452H711.731Z" fill="white"/>
<path d="M790.397 72.0833V124.277H761.23V18.0854H783.963L826.59 72.0812V18.0854H855.757V124.275H832.571L790.397 72.0833Z" fill="white"/>
<path d="M131.287 167.144H140.763V207.872H153.278V215.903H131.287V167.144Z" fill="white"/>
<path d="M167.092 204.761L164.922 215.903H155.734L166.296 167.144H177.655L187.13 215.903H177.944L175.846 204.761H167.092ZM174.976 197.383L173.385 187.182C172.879 184.214 172.228 179.37 171.794 176.115H171.577C171.07 179.37 170.347 184.433 169.841 187.257L168.032 197.383H174.976Z" fill="white"/>
<path d="M197.759 215.903L186.837 167.144H197.325L200.799 188.197C201.667 193.405 202.68 199.409 203.331 205.123H203.476C204.127 199.336 204.922 193.475 205.79 187.978L209.118 167.144H219.534L208.392 215.903H197.759Z" fill="white"/>
<path d="M230.239 204.761L228.069 215.903H218.883L229.443 167.144H240.8L250.277 215.903H241.091L238.991 204.761H230.239ZM238.123 197.383L236.532 187.182C236.026 184.214 235.373 179.37 234.939 176.115H234.724C234.217 179.37 233.492 184.433 232.986 187.257L231.177 197.383H238.123Z" fill="white"/>
<path d="M281.525 214.601C279.426 215.469 274.941 216.337 271.397 216.337C265.827 216.337 261.63 214.743 258.377 211.488C254.181 207.438 251.937 200.204 252.082 191.811C252.299 174.088 262.427 166.71 272.771 166.71C276.46 166.71 279.209 167.433 280.73 168.156L279.066 176.33C277.692 175.607 275.883 175.247 273.496 175.247C267.059 175.247 261.921 179.659 261.921 192.392C261.921 204.11 266.478 208.306 270.89 208.306C271.76 208.306 272.409 208.233 272.771 208.091V196.298H268.431V188.559H281.525V214.601Z" fill="white"/>
<path d="M309.227 194.488H298.086V207.655H310.674V215.901H288.61V167.144H309.806V175.39H298.086V186.603H309.227V194.488Z" fill="white"/>
<path d="M346.915 198.83C346.698 194.201 346.336 187.905 346.481 182.695H346.264C345.396 187.905 344.094 193.909 343.153 197.67L338.958 215.105H332.229L328.178 197.962C327.238 194.054 325.936 187.978 325.211 182.695H324.996C324.851 187.978 324.562 194.126 324.27 198.972L323.475 215.9H315.301L318.845 167.142H328.829L332.735 184.793C334.11 190.943 335.341 196.368 336.209 201.866H336.352C337.077 196.441 338.16 190.943 339.464 184.793L343.296 167.142H353.28L356.246 215.9H347.783L346.915 198.83Z" fill="white"/>
<path d="M395.302 194.488H384.16V207.655H396.748V215.901H374.685V167.144H395.88V175.39H384.16V186.603H395.302V194.488Z" fill="white"/>
<path d="M424.161 167.144V186.676H434.072V167.144H443.55V215.903H434.072V195.503H424.161V215.903H414.685V167.144H424.161Z" fill="white"/>
<path d="M461.414 167.144V215.903H451.939V167.144H461.414Z" fill="white"/>
<path d="M496.932 214.601C494.832 215.469 490.348 216.337 486.803 216.337C481.234 216.337 477.036 214.743 473.783 211.488C469.588 207.438 467.344 200.204 467.488 191.811C467.705 174.088 477.834 166.71 488.178 166.71C491.867 166.71 494.615 167.433 496.136 168.156L494.473 176.33C493.098 175.607 491.29 175.247 488.903 175.247C482.465 175.247 477.328 179.659 477.328 192.392C477.328 204.11 481.885 208.306 486.297 208.306C487.167 208.306 487.816 208.233 488.178 208.091V196.298H483.838V188.559H496.932V214.601Z" fill="white"/>
<path d="M513.492 167.144V215.903H504.017V167.144H513.492Z" fill="white"/>
<path d="M542.57 194.488H531.429V207.655H544.017V215.901H521.953V167.144H543.149V175.39H531.429V186.603H542.57V194.488Z" fill="white"/>
<path d="M550.452 215.903V167.144H559.133L566.657 186.242C568.104 190.003 570.491 196.296 571.867 200.494H572.01C571.721 195.358 571.07 186.893 571.07 177.923V167.144H579.388V215.903H570.708L563.258 197.383C561.666 193.26 559.426 187.11 558.339 182.697H558.194C558.411 187.618 558.773 195.141 558.773 204.908V215.903H550.452Z" fill="white"/>
<path d="M597.252 167.144V215.903H587.776V167.144H597.252Z" fill="white"/>
<path d="M602.311 210.331L617.72 175.607V175.39H603.758V167.144H628.428V174.162L613.67 207.44V207.657H628.353V215.903H602.309V210.331H602.311Z" fill="white"/>
<path d="M642.169 204.761L639.999 215.903H630.813L641.373 167.144H652.73L662.207 215.903H653.021L650.921 204.761H642.169ZM650.053 197.383L648.462 187.182C647.956 184.214 647.303 179.37 646.869 176.115H646.654C646.147 179.37 645.422 184.433 644.916 187.257L643.107 197.383H650.053Z" fill="white"/>
<path d="M689.767 215.177C688.537 215.756 686.15 216.262 683.184 216.337L681.81 219.085C684.414 219.519 686.729 221.472 686.729 224.366C686.729 228.995 682.82 230.661 678.697 230.661C676.747 230.661 674.574 230.082 673.272 229.359L674.647 225.306C675.806 225.885 677.253 226.319 678.408 226.319C679.563 226.319 680.723 225.812 680.723 224.51C680.723 223.064 678.987 222.123 675.804 221.834L678.408 215.975C668.641 213.95 664.012 204.472 664.012 192.248C664.012 173.873 674.213 166.712 683.688 166.712C687.014 166.712 689.328 167.363 690.271 168.014L688.679 175.973C687.594 175.466 686.365 175.032 684.265 175.032C678.912 175.032 674.064 179.662 674.064 191.743C674.064 203.391 678.478 207.948 684.265 207.948C685.858 207.948 687.667 207.586 688.822 207.225L689.767 215.177Z" fill="white"/>
<path d="M703.867 204.761L701.697 215.903H692.511L703.072 167.144H714.428L723.906 215.903H714.719L712.62 204.761H703.867ZM700.47 163.961C700.325 158.536 702.278 155.643 705.244 155.643C706.91 155.643 708.065 156.221 709.077 156.872C710.09 157.523 710.958 158.104 711.754 158.104C712.839 158.104 713.2 157.453 713.49 155.355H717.685C717.83 161.429 716.021 163.674 712.694 163.674C711.103 163.674 709.801 163.095 708.788 162.514C707.775 161.863 707.122 161.429 706.329 161.429C705.535 161.429 704.882 162.227 704.735 163.963H700.47V163.961ZM711.754 197.383L710.162 187.182C709.656 184.214 709.003 179.37 708.569 176.115H708.354C707.848 179.37 707.122 184.433 706.616 187.257L704.808 197.383H711.754Z" fill="white"/>
<path d="M756.892 190.654C756.892 209.031 750.382 216.481 741.121 216.481C730.054 216.481 725.712 204.761 725.712 191.38C725.712 178.068 730.994 166.565 741.772 166.565C753.565 166.565 756.892 179.513 756.892 190.654ZM735.551 191.522C735.551 202.591 737.649 208.233 741.483 208.233C745.461 208.233 746.98 201 746.98 191.088C746.98 182.553 745.678 174.813 741.411 174.813C737.649 174.813 735.551 181.034 735.551 191.522Z" fill="white"/>
</svg>
