<svg width="574" height="110" viewBox="0 0 574 110" fill="none" xmlns="http://www.w3.org/2000/svg">
<path d="M164.448 75.592C165.456 76.312 166.776 76.936 168.408 77.464C170.088 77.992 172.008 78.256 174.168 78.256C177.48 78.256 179.976 77.512 181.656 76.024C183.336 74.488 184.44 72.208 184.968 69.184C185.544 66.16 185.832 62.392 185.832 57.88V30.88H190.872V56.872C190.872 60.712 190.68 64.216 190.296 67.384C189.912 70.552 189.168 73.288 188.064 75.592C186.96 77.896 185.304 79.672 183.096 80.92C180.888 82.168 177.96 82.792 174.312 82.792C171.96 82.792 169.872 82.528 168.048 82C166.224 81.472 164.544 80.68 163.008 79.624L164.448 75.592ZM217.787 30.88H222.035L243.275 82H237.947L231.323 66.016H208.355L201.803 82H196.403L217.787 30.88ZM230.171 62.056L219.875 36.784L209.435 62.056H230.171ZM281.969 35.344H263.753V82H258.713V35.344H240.497V30.88H281.969V35.344ZM308.391 82.36C304.791 82.36 301.527 81.64 298.599 80.2C295.671 78.712 293.151 76.744 291.039 74.296C288.927 71.848 287.295 69.088 286.143 66.016C284.991 62.896 284.415 59.704 284.415 56.44C284.415 53.032 285.015 49.792 286.215 46.72C287.415 43.6 289.095 40.84 291.255 38.44C293.463 35.992 296.031 34.072 298.959 32.68C301.887 31.24 305.055 30.52 308.463 30.52C312.015 30.52 315.255 31.264 318.183 32.752C321.111 34.24 323.631 36.232 325.743 38.728C327.903 41.224 329.535 44.008 330.639 47.08C331.791 50.152 332.367 53.296 332.367 56.512C332.367 59.92 331.767 63.184 330.567 66.304C329.367 69.376 327.687 72.136 325.527 74.584C323.367 76.984 320.823 78.88 317.895 80.272C314.967 81.664 311.799 82.36 308.391 82.36ZM289.455 56.44C289.455 59.224 289.911 61.888 290.823 64.432C291.735 66.976 293.031 69.256 294.711 71.272C296.391 73.288 298.383 74.896 300.687 76.096C303.039 77.248 305.607 77.824 308.391 77.824C311.319 77.824 313.935 77.224 316.239 76.024C318.591 74.776 320.583 73.12 322.215 71.056C323.895 68.992 325.167 66.712 326.031 64.216C326.895 61.672 327.327 59.08 327.327 56.44C327.327 53.656 326.871 50.992 325.959 48.448C325.047 45.904 323.727 43.624 321.999 41.608C320.319 39.592 318.327 38.008 316.023 36.856C313.719 35.704 311.175 35.128 308.391 35.128C305.511 35.128 302.895 35.728 300.543 36.928C298.239 38.128 296.247 39.76 294.567 41.824C292.935 43.84 291.663 46.12 290.751 48.664C289.887 51.208 289.455 53.8 289.455 56.44ZM337.693 56.08C337.693 52.96 338.245 49.888 339.349 46.864C340.501 43.84 342.157 41.104 344.317 38.656C346.477 36.208 349.117 34.264 352.237 32.824C355.357 31.336 358.909 30.592 362.893 30.592C367.549 30.592 371.605 31.624 375.061 33.688C378.517 35.752 381.085 38.44 382.765 41.752L375.133 47.008C374.269 45.088 373.141 43.576 371.749 42.472C370.357 41.368 368.845 40.576 367.213 40.096C365.629 39.616 364.093 39.376 362.605 39.376C360.109 39.376 357.925 39.88 356.053 40.888C354.229 41.896 352.693 43.216 351.445 44.848C350.197 46.48 349.261 48.304 348.637 50.32C348.061 52.336 347.773 54.352 347.773 56.368C347.773 59.392 348.397 62.224 349.645 64.864C350.893 67.456 352.645 69.568 354.901 71.2C357.157 72.832 359.773 73.648 362.749 73.648C364.285 73.648 365.869 73.384 367.501 72.856C369.181 72.328 370.717 71.488 372.109 70.336C373.501 69.184 374.581 67.696 375.349 65.872L383.485 70.552C382.429 73.096 380.773 75.256 378.517 77.032C376.261 78.76 373.717 80.104 370.885 81.064C368.053 81.976 365.245 82.432 362.461 82.432C358.813 82.432 355.477 81.688 352.453 80.2C349.477 78.664 346.885 76.648 344.677 74.152C342.469 71.608 340.741 68.776 339.493 65.656C338.293 62.488 337.693 59.296 337.693 56.08ZM390.148 82V30.88H400.084V73.288H426.148V82H390.148ZM467.691 73.288V82H432.195V30.88H467.043V39.592H442.131V51.904H463.659V59.968H442.131V73.288H467.691ZM489.333 30.88H499.413L518.205 82H507.981L503.229 69.256H485.373L480.693 82H470.469L489.333 30.88ZM501.429 62.272L494.373 41.176L487.029 62.272H501.429ZM533.748 49.168V82H523.812V30.88H531.732L558.156 64.576V30.952H568.092V82H559.812L533.748 49.168Z" fill="white"/>
<line x1="163" y1="1.5" x2="573" y2="1.5" stroke="white" stroke-width="3"/>
<line x1="163" y1="108.5" x2="573" y2="108.5" stroke="white" stroke-width="3"/>
<path d="M35.5 42.4167V56.5833H106.5V42.4167C106.5 34.6028 112.868 28.25 120.7 28.25H127.8C127.8 16.5182 118.259 7 106.5 7H35.5C23.7406 7 14.2 16.5182 14.2 28.25H21.3C29.1322 28.25 35.5 34.6028 35.5 42.4167ZM127.8 35.3333H120.7C116.773 35.3333 113.6 38.4988 113.6 42.4167V63.6667H28.4V42.4167C28.4 38.4988 25.2272 35.3333 21.3 35.3333H14.2C6.36781 35.3333 0 41.6863 0 49.5C0 54.724 2.88438 59.2396 7.1 61.6967V88.4583C7.1 90.4062 8.6975 92 10.65 92H24.85C26.8025 92 28.4 90.4062 28.4 88.4583V84.9167H113.6V88.4583C113.6 90.4062 115.197 92 117.15 92H131.35C133.303 92 134.9 90.4062 134.9 88.4583V61.6967C139.116 59.2396 142 54.724 142 49.5C142 41.6863 135.632 35.3333 127.8 35.3333Z" fill="white"/>
</svg>
