<svg width="583" height="110" viewBox="0 0 583 110" fill="none" xmlns="http://www.w3.org/2000/svg">
<path d="M173.448 75.592C174.456 76.312 175.776 76.936 177.408 77.464C179.088 77.992 181.008 78.256 183.168 78.256C186.48 78.256 188.976 77.512 190.656 76.024C192.336 74.488 193.44 72.208 193.968 69.184C194.544 66.16 194.832 62.392 194.832 57.88V30.88H199.872V56.872C199.872 60.712 199.68 64.216 199.296 67.384C198.912 70.552 198.168 73.288 197.064 75.592C195.96 77.896 194.304 79.672 192.096 80.92C189.888 82.168 186.96 82.792 183.312 82.792C180.96 82.792 178.872 82.528 177.048 82C175.224 81.472 173.544 80.68 172.008 79.624L173.448 75.592ZM226.787 30.88H231.035L252.275 82H246.947L240.323 66.016H217.355L210.803 82H205.403L226.787 30.88ZM239.171 62.056L228.875 36.784L218.435 62.056H239.171ZM290.969 35.344H272.753V82H267.713V35.344H249.497V30.88H290.969V35.344ZM317.391 82.36C313.791 82.36 310.527 81.64 307.599 80.2C304.671 78.712 302.151 76.744 300.039 74.296C297.927 71.848 296.295 69.088 295.143 66.016C293.991 62.896 293.415 59.704 293.415 56.44C293.415 53.032 294.015 49.792 295.215 46.72C296.415 43.6 298.095 40.84 300.255 38.44C302.463 35.992 305.031 34.072 307.959 32.68C310.887 31.24 314.055 30.52 317.463 30.52C321.015 30.52 324.255 31.264 327.183 32.752C330.111 34.24 332.631 36.232 334.743 38.728C336.903 41.224 338.535 44.008 339.639 47.08C340.791 50.152 341.367 53.296 341.367 56.512C341.367 59.92 340.767 63.184 339.567 66.304C338.367 69.376 336.687 72.136 334.527 74.584C332.367 76.984 329.823 78.88 326.895 80.272C323.967 81.664 320.799 82.36 317.391 82.36ZM298.455 56.44C298.455 59.224 298.911 61.888 299.823 64.432C300.735 66.976 302.031 69.256 303.711 71.272C305.391 73.288 307.383 74.896 309.687 76.096C312.039 77.248 314.607 77.824 317.391 77.824C320.319 77.824 322.935 77.224 325.239 76.024C327.591 74.776 329.583 73.12 331.215 71.056C332.895 68.992 334.167 66.712 335.031 64.216C335.895 61.672 336.327 59.08 336.327 56.44C336.327 53.656 335.871 50.992 334.959 48.448C334.047 45.904 332.727 43.624 330.999 41.608C329.319 39.592 327.327 38.008 325.023 36.856C322.719 35.704 320.175 35.128 317.391 35.128C314.511 35.128 311.895 35.728 309.543 36.928C307.239 38.128 305.247 39.76 303.567 41.824C301.935 43.84 300.663 46.12 299.751 48.664C298.887 51.208 298.455 53.8 298.455 56.44ZM346.693 56.08C346.693 52.96 347.245 49.888 348.349 46.864C349.501 43.84 351.157 41.104 353.317 38.656C355.477 36.208 358.117 34.264 361.237 32.824C364.357 31.336 367.909 30.592 371.893 30.592C376.549 30.592 380.605 31.624 384.061 33.688C387.517 35.752 390.085 38.44 391.765 41.752L384.133 47.008C383.269 45.088 382.141 43.576 380.749 42.472C379.357 41.368 377.845 40.576 376.213 40.096C374.629 39.616 373.093 39.376 371.605 39.376C369.109 39.376 366.925 39.88 365.053 40.888C363.229 41.896 361.693 43.216 360.445 44.848C359.197 46.48 358.261 48.304 357.637 50.32C357.061 52.336 356.773 54.352 356.773 56.368C356.773 59.392 357.397 62.224 358.645 64.864C359.893 67.456 361.645 69.568 363.901 71.2C366.157 72.832 368.773 73.648 371.749 73.648C373.285 73.648 374.869 73.384 376.501 72.856C378.181 72.328 379.717 71.488 381.109 70.336C382.501 69.184 383.581 67.696 384.349 65.872L392.485 70.552C391.429 73.096 389.773 75.256 387.517 77.032C385.261 78.76 382.717 80.104 379.885 81.064C377.053 81.976 374.245 82.432 371.461 82.432C367.813 82.432 364.477 81.688 361.453 80.2C358.477 78.664 355.885 76.648 353.677 74.152C351.469 71.608 349.741 68.776 348.493 65.656C347.293 62.488 346.693 59.296 346.693 56.08ZM399.148 82V30.88H409.084V73.288H435.148V82H399.148ZM476.691 73.288V82H441.195V30.88H476.043V39.592H451.131V51.904H472.659V59.968H451.131V73.288H476.691ZM498.333 30.88H508.413L527.205 82H516.981L512.229 69.256H494.373L489.693 82H479.469L498.333 30.88ZM510.429 62.272L503.373 41.176L496.029 62.272H510.429ZM542.748 49.168V82H532.812V30.88H540.732L567.156 64.576V30.952H577.092V82H568.812L542.748 49.168Z" fill="white"/>
<line x1="172" y1="1.5" x2="582" y2="1.5" stroke="white" stroke-width="3"/>
<line x1="172" y1="108.5" x2="582" y2="108.5" stroke="white" stroke-width="3"/>
<path d="M35.5 49.4167V63.5833H106.5V49.4167C106.5 41.6028 112.868 35.25 120.7 35.25H127.8C127.8 23.5182 118.259 14 106.5 14H35.5C23.7406 14 14.2 23.5182 14.2 35.25H21.3C29.1322 35.25 35.5 41.6028 35.5 49.4167ZM127.8 42.3333H120.7C116.773 42.3333 113.6 45.4988 113.6 49.4167V70.6667H28.4V49.4167C28.4 45.4988 25.2272 42.3333 21.3 42.3333H14.2C6.36781 42.3333 0 48.6863 0 56.5C0 61.724 2.88438 66.2396 7.1 68.6967V95.4583C7.1 97.4062 8.6975 99 10.65 99H24.85C26.8025 99 28.4 97.4062 28.4 95.4583V91.9167H113.6V95.4583C113.6 97.4062 115.197 99 117.15 99H131.35C133.303 99 134.9 97.4062 134.9 95.4583V68.6967C139.116 66.2396 142 61.724 142 56.5C142 48.6863 135.632 42.3333 127.8 42.3333Z" fill="white"/>
</svg>
